<svg xmlns="http://www.w3.org/2000/svg" width="258.069" height="26" viewBox="0 0 258.069 26">
  <path id="logo" d="M8.6,5.105a1.663,1.663,0,0,0-.566,1.418V7.658h3.876V11.44H8.037V24.109H2.363V11.345H0V7.563H2.363V5.957a5.443,5.443,0,0,1,1.8-4.35A7.151,7.151,0,0,1,8.887,0a10.117,10.117,0,0,1,3.688.663l-.757,4.348a7.587,7.587,0,0,0-1.891-.473A2.464,2.464,0,0,0,8.6,5.105Zm13.9,2.08a6.384,6.384,0,0,1,3.308-.85v5.2H24.96a5.286,5.286,0,0,0-3.31.945,3.525,3.525,0,0,0-1.417,2.553V23.92H14.465V6.617h5.768V9.55A6.073,6.073,0,0,1,22.5,7.185Zm18.53.852a5.671,5.671,0,0,1,1.985,4.537v11.44H37.535V21.84a6.178,6.178,0,0,1-5.106,2.175A5.723,5.723,0,0,1,28.175,22.5a4.991,4.991,0,0,1-1.513-3.877,4.509,4.509,0,0,1,1.7-3.782,7.331,7.331,0,0,1,4.821-1.417h4.444v-.19a2.255,2.255,0,0,0-.85-1.89,3.524,3.524,0,0,0-2.364-.663,7.242,7.242,0,0,0-2.365.379A10.306,10.306,0,0,0,29.4,12.1L27.891,8.32A20.076,20.076,0,0,1,31.861,6.9a17.577,17.577,0,0,1,3.972-.474,7.615,7.615,0,0,1,5.2,1.608ZM36.4,19.57a2.584,2.584,0,0,0,1.229-1.607V16.451h-3.4c-1.607,0-2.363.567-2.363,1.8a1.927,1.927,0,0,0,.567,1.418,2.313,2.313,0,0,0,1.7.568A4.548,4.548,0,0,0,36.4,19.57ZM72.233,8.225a6.834,6.834,0,0,1,1.7,4.823V24.015H68.262v-9.36a3.72,3.72,0,0,0-.757-2.364,2.635,2.635,0,0,0-2.08-.851,2.863,2.863,0,0,0-2.363,1.135,4.6,4.6,0,0,0-.85,2.836v8.6H56.537v-9.36a3.719,3.719,0,0,0-.756-2.364,2.638,2.638,0,0,0-2.08-.851,2.865,2.865,0,0,0-2.364,1.135,4.6,4.6,0,0,0-.85,2.836v8.6H44.909V6.429h5.577v3.12a5.259,5.259,0,0,1,2.27-2.269,6.129,6.129,0,0,1,3.308-.757,6.431,6.431,0,0,1,3.593,1.04,5.347,5.347,0,0,1,2.08,2.837A6.171,6.171,0,0,1,64.1,7.469a6.591,6.591,0,0,1,3.593-.946,5.479,5.479,0,0,1,4.537,1.7Zm18.814.568a9.866,9.866,0,0,1,2.27,6.807v1.04H81.4a4.671,4.671,0,0,0,1.419,2.269,3.635,3.635,0,0,0,2.458.756,6,6,0,0,0,2.175-.472,6.232,6.232,0,0,0,1.89-1.324L92.277,20.8a7.708,7.708,0,0,1-3.215,2.269,11.48,11.48,0,0,1-9.077-.378,7.431,7.431,0,0,1-3.12-3.026,9.094,9.094,0,0,1-1.135-4.632,9.718,9.718,0,0,1,1.135-4.728,8.24,8.24,0,0,1,3.12-3.12,9.464,9.464,0,0,1,4.728-1.134c2.742.284,4.916,1.134,6.334,2.742Zm-3.214,4.822a3.534,3.534,0,0,0-.851-2.458,3.13,3.13,0,0,0-2.269-.946,3.39,3.39,0,0,0-2.27.85,4.668,4.668,0,0,0-1.228,2.459h6.618Zm4.632-7.186h5.862l3.5,11.913,3.4-11.913h5.578l3.4,11.913,3.5-11.913h5.673l-6.429,17.586H111.28l-3.4-10.873-3.31,10.873H98.9Zm62.3.851a6.01,6.01,0,0,1,3.215-.757v5.2h-.85a5.28,5.28,0,0,0-3.31.946,3.528,3.528,0,0,0-1.418,2.553v8.793h-5.672V6.429h5.672V9.643A7.058,7.058,0,0,1,154.77,7.28Zm16.263,16.735-3.688-6.524-1.8,1.8v4.728h-5.767V.095h5.767V12.48l5.578-5.863h6.523l-6.428,6.714,6.523,10.684Zm-31.2-16.546a9.454,9.454,0,0,1,3.97,3.12,7.693,7.693,0,0,1,1.419,4.633,7.7,7.7,0,0,1-1.419,4.633,9.47,9.47,0,0,1-3.97,3.12,16.211,16.211,0,0,1-11.913,0,9.479,9.479,0,0,1-3.971-3.12,7.7,7.7,0,0,1-1.419-4.633,7.9,7.9,0,0,1,1.419-4.633,9.47,9.47,0,0,1,3.971-3.12,14.561,14.561,0,0,1,5.957-1.134,16.284,16.284,0,0,1,5.956,1.134ZM125.557,22.123a2.415,2.415,0,0,1,.945.757,2.052,2.052,0,0,1,0,2.08,2.59,2.59,0,0,1-.945.757,3.239,3.239,0,0,1-2.648,0,2.418,2.418,0,0,1-.946-.757,2.052,2.052,0,0,1,0-2.08,1.98,1.98,0,0,1,.946-.757,3.035,3.035,0,0,1,1.324-.283C124.7,21.935,125.178,22.03,125.557,22.123ZM251.644,2.63a11.256,11.256,0,0,1,4.734,3.72,9.171,9.171,0,0,1,1.691,5.523,9.181,9.181,0,0,1-1.69,5.523,11.281,11.281,0,0,1-4.735,3.72,19.316,19.316,0,0,1-14.2,0A11.275,11.275,0,0,1,232.7,17.4a9.175,9.175,0,0,1-1.69-5.523,9.419,9.419,0,0,1,1.69-5.524,11.3,11.3,0,0,1,4.735-3.72,17.352,17.352,0,0,1,7.1-1.353,19.44,19.44,0,0,1,7.1,1.353ZM234.622,20.1a2.854,2.854,0,0,1,1.127.9,2.444,2.444,0,0,1,0,2.48,3.059,3.059,0,0,1-1.127.9,3.845,3.845,0,0,1-3.157,0,2.86,2.86,0,0,1-1.127-.9,2.444,2.444,0,0,1,0-2.48,2.354,2.354,0,0,1,1.127-.9,3.6,3.6,0,0,1,1.579-.338c.563.112,1.127.225,1.578.338Z" fill="#603474"/>
</svg>
